Coordinates
version=1
nRows=26
nColumns=24
inDegrees=yes

Units are S.I. units (second, meters, Newtons, ...)
Angles are in degrees.

endheader
time	pelvis_tilt	pelvis_list	pelvis_rotation	pelvis_tx	pelvis_ty	pelvis_tz	hip_flexion_r	hip_adduction_r	hip_rotation_r	knee_angle_r	ankle_angle_r	subtalar_angle_r	mtp_angle_r	hip_flexion_l	hip_adduction_l	hip_rotation_l	knee_angle_l	ankle_angle_l	subtalar_angle_l	mtp_angle_l	lumbar_extension	lumbar_bending	lumbar_rotation
      2.34000000	     26.19494330	     -3.44457765	     -0.52829673	      0.63039024	      0.89999829	      0.00858396	    -40.55794635	      3.57799740	     -1.84449653	    -29.81059727	     -7.33040505	     21.92371621	     54.19478504	    -11.82019927	      1.41231663	     17.84788355	    -12.13267263	     -8.16316747	    -34.68224167	     18.51899195	    -32.52930672	     -0.45194523	      2.23836969
      2.34500000	     26.20781084	     -3.37900503	     -0.54460580	      0.63657524	      0.90105849	      0.00828302	    -39.68641146	      3.18870173	     -2.75629899	    -31.77203130	     -8.45999221	     21.70463964	     54.21662964	    -12.43444380	      1.47578565	     17.78699664	    -11.82467264	     -7.94611485	    -34.65358889	     18.47637828	    -32.50313198	     -0.61091268	      2.08611222
      2.35000000	     26.18286305	     -3.32244625	     -0.50570407	      0.64267603	      0.90203522	      0.00783275	    -38.76441664	      2.82622856	     -3.63759370	    -33.69906455	     -9.45670205	     21.35982168	     54.20656812	    -13.00086681	      1.52775984	     17.87274708	    -11.51720302	     -7.68660434	    -34.63263101	     18.41227827	    -32.44583782	     -0.71943150	      1.89550381
      2.35500000	     26.16200567	     -3.28630460	     -0.46231764	      0.64872540	      0.90298880	      0.00734532	    -37.84718766	      2.47772781	     -4.44842412	    -35.57375490	    -10.24601805	     20.76343563	     54.11673176	    -13.58241455	      1.55456308	     17.93078732	    -11.17456598	     -7.44636295	    -34.64011217	     18.33427675	    -32.39876880	     -0.79830246	      1.71242234
      2.36000000	     26.12535500	     -3.28130135	     -0.40623044	      0.65473504	      0.90391158	      0.00681940	    -36.91622246	      2.17108015	     -5.17221972	    -37.38315085	    -10.81665395	     19.86636424	     53.89646077	    -14.15776317	      1.54345204	     17.99384871	    -10.79783149	     -7.21120391	    -34.68582563	     18.22242190	    -32.33842528	     -0.83124629	      1.53231728
      2.36500000	     26.09986616	     -3.30027327	     -0.34508779	      0.66067814	      0.90482475	      0.00626373	    -35.99840664	      1.89135296	     -5.82382194	    -39.12509618	    -11.17750593	     18.80583868	     53.54814345	    -14.74826304	      1.50485579	     18.03650552	    -10.40290005	     -7.00499213	    -34.74674867	     18.10608286	    -32.29623130	     -0.83122914	      1.36499403
      2.37000000	     26.07170381	     -3.35085530	     -0.27223129	      0.66655687	      0.90572046	      0.00566920	    -35.07975641	      1.65738078	     -6.39781712	    -40.78985292	    -11.32614749	     17.57923885	     53.02972230	    -15.33320218	      1.43106274	     18.07829561	    -10.00183861	     -6.80872483	    -34.82264105	     17.98012297	    -32.25713395	     -0.78581168	      1.21119735
      2.37500000	     26.08797296	     -3.39389272	     -0.19634017	      0.67231016	      0.90662104	      0.00502938	    -34.19531161	      1.40973849	     -6.94239220	    -42.44289654	    -11.03392344	     16.65631919	     48.76211650	    -15.96662940	      1.37102891	     18.15836117	     -9.58498371	     -6.67198729	    -34.95184903	     17.00723658	    -32.27867734	     -0.74073148	      1.07730683
      2.38000000	     26.03450037	     -3.50523308	     -0.08508117	      0.67804202	      0.90743613	      0.00433720	    -33.24900302	      1.27184159	     -7.41551270	    -43.94511909	    -10.82237236	     15.20679584	     48.49790276	    -16.49347246	      1.22607426	     18.18308888	     -9.22023082	     -6.42459185	    -34.92502975	     16.98671328	    -32.22892876	     -0.59955416	      0.93539640
      2.38500000	     26.01195343	     -3.63620687	      0.02306345	      0.68368393	      0.90826831	      0.00366946	    -32.33817228	      1.17082970	     -7.81915596	    -45.35503173	    -10.39208488	     13.64319471	     48.10237434	    -17.05879111	      1.05811876	     18.21452720	     -8.83317356	     -6.23214187	    -34.94652501	     16.95861538	    -32.22083840	     -0.44026782	      0.81925822
      2.39000000	     26.07592050	     -3.76857956	      0.13615662	      0.68928617	      0.90918975	      0.00301163	    -31.54689228	      1.08483357	     -8.20535447	    -46.62870927	     -9.80439709	     11.97468003	     47.00706922	    -17.73877556	      0.88079953	     18.20220890	     -8.39167447	     -6.08219031	    -35.00052640	     16.87968037	    -32.30778025	     -0.27712037	      0.69213449
      2.39500000	     25.97021692	     -3.93999934	      0.25833182	      0.69480443	      0.90985997	      0.00228128	    -30.53160289	      1.05245244	     -8.53414860	    -47.89488501	     -9.02217291	     10.41630462	     46.41117828	    -18.18248294	      0.67282871	     18.25531349	     -8.04341481	     -5.89566198	    -35.06227113	     16.85443458	    -32.22305312	     -0.05243176	      0.59696682
      2.40000000	     25.97701497	     -4.11929943	      0.38068391	      0.70022916	      0.91065553	      0.00157696	    -29.65589967	      1.04264539	     -8.81634626	    -49.06353931	     -7.77168463	      9.27623131	     41.07182996	    -18.78185715	      0.44519203	     18.29949789	     -7.60413293	     -5.86187397	    -35.17752373	     16.60395192	    -32.26771970	      0.17862992	      0.52147345
      2.40500000	     25.95351335	     -4.32555128	      0.54622856	      0.70559681	      0.91137795	      0.00082094	    -28.76406582	      1.10535324	     -9.09938302	    -50.05652042	     -6.78740470	      7.58108907	     40.77385218	    -19.30231436	      0.18375265	     18.37402005	     -7.25780820	     -5.61885945	    -35.21531623	     16.60763841	    -32.28481271	      0.46224089	      0.42806155
      2.41000000	     25.93540519	     -4.53746878	      0.69890684	      0.71087786	      0.91207673	      0.00009549	    -27.87474881	      1.18669476	     -9.33494404	    -50.95683642	     -5.70052357	      5.90825794	     40.30962427	    -19.83363070	     -0.08633251	     18.43847341	     -6.88122231	     -5.47131081	    -35.27544891	     16.59725710	    -32.31728923	      0.74792784	      0.35730484
      2.41500000	     25.88477176	     -4.74010076	      0.84761323	      0.71613061	      0.91271522	     -0.00060174	    -26.95210792	      1.27670206	     -9.54521655	    -51.76431297	     -4.53674095	      4.27617793	     39.77785659	    -20.32369780	     -0.34755755	     18.50238803	     -6.50613151	     -5.32913898	    -35.37491419	     16.58241666	    -32.31786618	      1.02468894	      0.24379519
      2.42000000	     25.86831587	     -4.96741146	      1.03642444	      0.72124009	      0.91335228	     -0.00137322	    -26.06784378	      1.42163257	     -9.74056132	    -52.49938363	     -2.96212924	      3.23940221	     34.71746655	    -20.85209073	     -0.64525720	     18.71663128	     -6.09441259	     -5.42784520	    -35.83736640	     16.45773061	    -32.36792320	      1.35071500	      0.16459060
      2.42500000	     25.83177545	     -5.18136673	      1.23120184	      0.72628704	      0.91393077	     -0.00211605	    -25.17031564	      1.57977078	     -9.93301147	    -53.08229906	     -1.72972961	      1.70192195	     34.46504234	    -21.31338438	     -0.93551647	     18.85450366	     -5.77407414	     -5.22551678	    -35.81567939	     16.47900791	    -32.40254675	      1.66725303	      0.07430167
      2.43000000	     25.78871493	     -5.37736198	      1.43131363	      0.73126423	      0.91446419	     -0.00283022	    -24.27094939	      1.74686191	    -10.09743488	    -53.56535909	     -0.44440247	      0.26568472	     34.11140495	    -21.76116959	     -1.21214792	     19.02226218	     -5.44716770	     -5.07744516	    -35.93581152	     16.47030903	    -32.43837025	      1.96651850	     -0.07381723
      2.43500000	     25.74077914	     -5.58435196	      1.68528735	      0.73608419	      0.91494358	     -0.00367786	    -23.36057759	      1.95100109	    -10.28320252	    -53.98425225	      1.08741866	     -0.68292443	     30.41838049	    -22.21161157	     -1.51313269	     19.47493049	     -5.05342264	     -5.37699542	    -36.77874241	     16.34782364	    -32.48199417	      2.31579608	     -0.19306208
      2.44000000	     25.70098263	     -5.75759100	      1.93375799	      0.74086768	      0.91539905	     -0.00442559	    -22.47485813	      2.14966544	    -10.44864132	    -54.26196158	      2.34026746	     -2.00798915	     30.15056599	    -22.61582597	     -1.78857213	     19.73207701	     -4.78251553	     -5.16104849	    -36.75700538	     16.37925694	    -32.53522854	      2.62027567	     -0.34970832
      2.44500000	     25.64344310	     -5.91890144	      2.21196349	      0.74554192	      0.91579393	     -0.00521928	    -21.57253600	      2.36212877	    -10.61396589	    -54.44589849	      3.58257746	     -3.20220907	     29.74371599	    -22.98307207	     -2.06087079	     20.10919889	     -4.51852776	     -5.05159955	    -36.98125424	     16.35618208	    -32.58012442	      2.93263574	     -0.54773227
      2.45000000	     25.59048011	     -6.05657311	      2.55751837	      0.75004404	      0.91610838	     -0.00616470	    -20.67348059	      2.56660505	    -10.83558403	    -54.57900629	      5.09972155	     -3.76231374	     26.64685974	    -23.36559811	     -2.32856569	     20.82435603	     -4.16841295	     -5.52232386	    -38.18116034	     16.19350641	    -32.64429094	      3.26485949	     -0.76224489
      2.45500000	     25.54906718	     -6.16865823	      2.87767073	      0.75451962	      0.91643614	     -0.00694827	    -19.80304680	      2.77654916	    -11.00118870	    -54.57053397	      6.23360227	     -4.84392831	     26.33228691	    -23.70057212	     -2.57587744	     21.27065295	     -3.96385724	     -5.33102234	    -38.22942594	     16.21534714	    -32.72168007	      3.54641352	     -1.00581734
      2.46000000	     25.53028635	     -6.26343141	      3.22415112	      0.75884762	      0.91672590	     -0.00779997	    -18.95938855	      2.98242357	    -11.16806910	    -54.49080170	      7.47421448	     -5.61993011	     24.80466260	    -24.08269274	     -2.81461678	     21.97285812	     -3.66454438	     -5.69252899	    -39.25934560	     16.03296516	    -32.83496043	      3.83108649	     -1.21542039
      2.46500000	     25.45323237	     -6.32960551	      3.61332016	      0.76312724	      0.91689138	     -0.00869878	    -18.06137984	      3.17330577	    -11.37336354	    -54.33646851	      8.65447810	     -6.21435284	     23.14521705	    -24.34597815	     -3.03740645	     22.69904729	     -3.46182181	     -5.87342153	    -40.00883035	     15.92009677	    -32.88967700	      4.11217866	     -1.52415128
